<svg width="73" height="81" viewBox="0 0 73 81" fill="none" xmlns="http://www.w3.org/2000/svg">
<mask id="path-1-inside-1_35_228" fill="white">
<path d="M60 0C61.1046 9.66382e-07 62 0.895431 62 2V16C62 17.1046 61.1046 18 60 18H40V79C40 80.1046 39.1046 81 38 81H24C22.8954 81 22 80.1046 22 79V18H2C0.895431 18 8.05334e-09 17.1046 0 16V2C0 0.895431 0.895431 0 2 0H60Z"/>
</mask>
<path d="M60 0C61.1046 9.66382e-07 62 0.895431 62 2V16C62 17.1046 61.1046 18 60 18H40V79C40 80.1046 39.1046 81 38 81H24C22.8954 81 22 80.1046 22 79V18H2C0.895431 18 8.05334e-09 17.1046 0 16V2C0 0.895431 0.895431 0 2 0H60Z" fill="#800101"/>
<path d="M60 0V-1V-1V0ZM62 2H63H62ZM40 18V17H39V18H40ZM38 81V82V81ZM22 79H21H22ZM22 18H23V17H22V18ZM2 18L2 19H2V18ZM0 16H-1H0ZM60 0V1C60.5523 1 61 1.44772 61 2H62H63C63 0.343146 61.6569 -0.999999 60 -1V0ZM62 2H61V16H62H63V2H62ZM62 16H61C61 16.5523 60.5523 17 60 17V18V19C61.6569 19 63 17.6569 63 16H62ZM60 18V17H40V18V19H60V18ZM40 18H39V79H40H41V18H40ZM40 79H39C39 79.5523 38.5523 80 38 80V81V82C39.6569 82 41 80.6569 41 79H40ZM38 81V80H24V81V82H38V81ZM24 81V80C23.4477 80 23 79.5523 23 79H22H21C21 80.6569 22.3431 82 24 82V81ZM22 79H23V18H22H21V79H22ZM22 18V17H2V18V19H22V18ZM2 18L2 17C1.44772 17 1 16.5523 1 16H0H-1C-1 17.6569 0.343147 19 2 19L2 18ZM0 16H1V2H0H-1V16H0ZM0 2H1C1 1.44772 1.44772 1 2 1V0V-1C0.343146 -1 -1 0.343146 -1 2H0ZM2 0V1H60V0V-1H2V0Z" fill="#FF9E9E" mask="url(#path-1-inside-1_35_228)"/>
<rect x="31" y="81" width="75" height="18" rx="2" transform="rotate(-90 31 81)" fill="#FF9E9E"/>
<rect x="31" y="6" width="42" height="18" rx="2" fill="#FF9E9E"/>
<rect x="31" y="35" width="31" height="18" rx="2" fill="#FF9E9E"/>
<path d="M62 16C62 17.0357 61.2128 17.887 60.2041 17.9893L60 18H39.7305V79L39.7197 79.2041C39.6243 80.1457 38.8761 80.8938 37.9346 80.9893L37.7305 81H32.7305C31.9905 81 31.3459 80.5973 31 80H37.7305C38.2828 80 38.7305 79.5523 38.7305 79V17H60C60.5523 17 61 16.5523 61 16V6H62V16Z" fill="#800101"/>
</svg>
